<?xml version="1.0" encoding="utf-8"?>
<!-- Generator: Adobe Illustrator 21.0.0, SVG Export Plug-In . SVG Version: 6.00 Build 0)  -->
<svg version="1.1" id="Layer_1" xmlns="http://www.w3.org/2000/svg" xmlns:xlink="http://www.w3.org/1999/xlink" x="0px" y="0px"
	 viewBox="0 0 102 39" style="enable-background:new 0 0 102 39;" xml:space="preserve">
<style type="text/css">
	.st0{fill:#444444;}
	.st1{fill:#CC0000;}
</style>
<g>
	<g>
		<g>
			<path class="st0" d="M27,9V6H9C7.3,6,6,7.3,6,9v21c0,1.7,1.3,3,3,3h18v-3H9V9H27z"/>
		</g>
	</g>
	<g>
		<g>
			<polygon class="st0" points="54,6 54,9 63,9 63,33 66,33 66,9 75,9 75,6 			"/>
		</g>
	</g>
	<g>
		<g>
			<path class="st0" d="M96,9V6H81c-1.7,0-3,1.3-3,3v21c0,1.7,1.3,3,3,3h15v-3H81v-9h12v-3H81V9H96z"/>
		</g>
	</g>
	<g>
		<g>
			<path class="st1" d="M46.8,6H30v27h21V10.2L46.8,6z M40.5,29.5l-3-3l1.5-12h3l1.5,12L40.5,29.5z M42,13.5h-3l-1.5-3h6L42,13.5z"
				/>
		</g>
	</g>
</g>
</svg>
